<svg width="25" height="25" viewBox="0 0 25 25" fill="none" xmlns="http://www.w3.org/2000/svg">
<path fill-rule="evenodd" clip-rule="evenodd" d="M12.2408 5.62244C11.799 5.62244 11.4408 5.98061 11.4408 6.42244V11.2224H6.64082C6.19899 11.2224 5.84082 11.5806 5.84082 12.0224C5.84082 12.4643 6.19899 12.8224 6.64082 12.8224H11.4408V17.6224C11.4408 18.0643 11.799 18.4224 12.2408 18.4224C12.6826 18.4224 13.0408 18.0643 13.0408 17.6224V12.8224H17.8408C18.2826 12.8224 18.6408 12.4643 18.6408 12.0224C18.6408 11.5806 18.2826 11.2224 17.8408 11.2224H13.0408V6.42244C13.0408 5.98061 12.6826 5.62244 12.2408 5.62244Z" fill="black"/>
<mask id="mask0" style="mask-type:alpha" maskUnits="userSpaceOnUse" x="5" y="5" width="14" height="14">
<path fill-rule="evenodd" clip-rule="evenodd" d="M12.2408 5.62244C11.799 5.62244 11.4408 5.98061 11.4408 6.42244V11.2224H6.64082C6.19899 11.2224 5.84082 11.5806 5.84082 12.0224C5.84082 12.4643 6.19899 12.8224 6.64082 12.8224H11.4408V17.6224C11.4408 18.0643 11.799 18.4224 12.2408 18.4224C12.6826 18.4224 13.0408 18.0643 13.0408 17.6224V12.8224H17.8408C18.2826 12.8224 18.6408 12.4643 18.6408 12.0224C18.6408 11.5806 18.2826 11.2224 17.8408 11.2224H13.0408V6.42244C13.0408 5.98061 12.6826 5.62244 12.2408 5.62244Z" fill="white"/>
</mask>
<g mask="url(#mask0)">
<rect x="0.240723" y="0.0224609" width="24" height="24" fill="#6676F3"/>
</g>
</svg>
