<svg width="25" height="25" viewBox="0 0 25 25" fill="none" xmlns="http://www.w3.org/2000/svg">
<mask id="mask0" style="mask-type:alpha" maskUnits="userSpaceOnUse" x="3" y="4" width="19" height="17">
<path d="M21.1592 8.89844V19.0234C21.1592 19.471 20.9814 19.9002 20.6649 20.2167C20.3485 20.5331 19.9192 20.7109 19.4717 20.7109H4.84668C4.39913 20.7109 3.9699 20.5331 3.65344 20.2167C3.33697 19.9002 3.15918 19.471 3.15918 19.0234V8.89844C3.15918 8.45088 3.33697 8.02166 3.65344 7.70519C3.9699 7.38873 4.39913 7.21094 4.84668 7.21094H7.94043L8.37243 6.05444C8.49318 5.73334 8.70893 5.45667 8.99093 5.26131C9.27292 5.06594 9.60775 4.96117 9.9508 4.96094H14.3631C14.7055 4.96185 15.0396 5.06695 15.3209 5.26227C15.6023 5.45759 15.8175 5.73388 15.9381 6.05444L16.3779 7.21094H19.4717C19.9192 7.21094 20.3485 7.38873 20.6649 7.70519C20.9814 8.02166 21.1592 8.45088 21.1592 8.89844ZM16.3779 13.9609C16.3779 13.1265 16.1305 12.3109 15.6669 11.6171C15.2034 10.9234 14.5445 10.3826 13.7736 10.0633C13.0027 9.74401 12.1545 9.66047 11.3361 9.82325C10.5178 9.98603 9.76608 10.3878 9.17607 10.9778C8.58607 11.5678 8.18427 12.3195 8.02149 13.1379C7.85871 13.9563 7.94226 14.8045 8.26156 15.5754C8.58087 16.3463 9.1216 17.0051 9.81537 17.4687C10.5091 17.9323 11.3248 18.1797 12.1592 18.1797C13.2778 18.1788 14.3503 17.734 15.1413 16.9431C15.9323 16.1521 16.377 15.0795 16.3779 13.9609ZM15.2529 13.9609C15.2529 14.5728 15.0715 15.171 14.7315 15.6797C14.3916 16.1885 13.9084 16.585 13.3431 16.8192C12.7778 17.0533 12.1557 17.1146 11.5556 16.9952C10.9555 16.8759 10.4042 16.5812 9.97157 16.1485C9.5389 15.7159 9.24425 15.1646 9.12488 14.5645C9.0055 13.9644 9.06677 13.3423 9.30093 12.777C9.53509 12.2117 9.93162 11.7285 10.4404 11.3886C10.9491 11.0486 11.5473 10.8672 12.1592 10.8672C12.9793 10.8684 13.7655 11.1947 14.3455 11.7746C14.9254 12.3546 15.2517 13.1408 15.2529 13.9609Z" fill="black"/>
</mask>
<g mask="url(#mask0)">
<rect x="0.15918" y="0.960938" width="24" height="24" fill="white"/>
</g>
</svg>
