<svg width="36" height="36" viewBox="8 4 32 32" fill="none" xmlns="http://www.w3.org/2000/svg">
<path fill-rule="evenodd" clip-rule="evenodd" d="M17 24.7644C12.0294 24.7644 8 20.8478 8 16.0165C8 11.1851 12.0294 7.26855 17 7.26855C21.9706 7.26855 26 11.1851 26 16.0165C26 18.3266 25.0788 20.4275 23.5739 21.9912L28.137 27.5353C28.551 28.0383 28.4671 28.7723 27.9496 29.1747C27.4321 29.5771 26.6769 29.4956 26.2629 28.9925L21.7163 23.4685C20.3448 24.2903 18.7294 24.7644 17 24.7644ZM17 22.4317C20.645 22.4317 23.6 19.5595 23.6 16.0166C23.6 12.4736 20.645 9.60142 17 9.60142C13.3549 9.60142 10.4 12.4736 10.4 16.0166C10.4 19.5595 13.3549 22.4317 17 22.4317Z" fill="black"/>
<mask id="mask0" style="mask-type:alpha" maskUnits="userSpaceOnUse" x="8" y="7" width="21" height="23">
<path fill-rule="evenodd" clip-rule="evenodd" d="M17 24.7644C12.0294 24.7644 8 20.8478 8 16.0165C8 11.1851 12.0294 7.26855 17 7.26855C21.9706 7.26855 26 11.1851 26 16.0165C26 18.3266 25.0788 20.4275 23.5739 21.9912L28.137 27.5353C28.551 28.0383 28.4671 28.7723 27.9496 29.1747C27.4321 29.5771 26.6769 29.4956 26.2629 28.9925L21.7163 23.4685C20.3448 24.2903 18.7294 24.7644 17 24.7644ZM17 22.4317C20.645 22.4317 23.6 19.5595 23.6 16.0166C23.6 12.4736 20.645 9.60142 17 9.60142C13.3549 9.60142 10.4 12.4736 10.4 16.0166C10.4 19.5595 13.3549 22.4317 17 22.4317Z" fill="white"/>
</mask>
<g mask="url(#mask0)">
<rect y="0.159668" width="36" height="34.9916" fill="white"/>
</g>
</svg>
