<svg width="48" height="48" viewBox="8 8 32 32" fill="none" xmlns="http://www.w3.org/2000/svg">
<path fill-rule="evenodd" clip-rule="evenodd" d="M10 15C10 14.4477 10.4477 14 11 14H37C37.5523 14 38 14.4477 38 15V16.3333C38 16.8856 37.5523 17.3333 37 17.3333H11C10.4477 17.3333 10 16.8856 10 16.3333V15ZM10 23.3333C10 22.781 10.4477 22.3333 11 22.3333H37C37.5523 22.3333 38 22.781 38 23.3333V24.6666C38 25.2189 37.5523 25.6666 37 25.6666H11C10.4477 25.6666 10 25.2189 10 24.6666V23.3333ZM11 30.6668C10.4477 30.6668 10 31.1145 10 31.6668V33.0002C10 33.5524 10.4477 34.0002 11 34.0002H37C37.5523 34.0002 38 33.5524 38 33.0002V31.6668C38 31.1145 37.5523 30.6668 37 30.6668H11Z" fill="black"/>
<mask id="mask0" style="mask-type:alpha" maskUnits="userSpaceOnUse" x="10" y="14" width="28" height="21">
<path fill-rule="evenodd" clip-rule="evenodd" d="M10 15C10 14.4477 10.4477 14 11 14H37C37.5523 14 38 14.4477 38 15V16.3333C38 16.8856 37.5523 17.3333 37 17.3333H11C10.4477 17.3333 10 16.8856 10 16.3333V15ZM10 23.3333C10 22.781 10.4477 22.3333 11 22.3333H37C37.5523 22.3333 38 22.781 38 23.3333V24.6666C38 25.2189 37.5523 25.6666 37 25.6666H11C10.4477 25.6666 10 25.2189 10 24.6666V23.3333ZM11 30.6668C10.4477 30.6668 10 31.1145 10 31.6668V33.0002C10 33.5524 10.4477 34.0002 11 34.0002H37C37.5523 34.0002 38 33.5524 38 33.0002V31.6668C38 31.1145 37.5523 30.6668 37 30.6668H11Z" fill="white"/>
</mask>
<g mask="url(#mask0)">
<path d="M0 0H48V48H0V0Z" fill="white"/>
</g>
</svg>
