<svg width="48" height="48" viewBox="8 4 32 32" fill="none" xmlns="http://www.w3.org/2000/svg">
<mask id="mask0" style="mask-type:alpha" maskUnits="userSpaceOnUse" x="8" y="4" width="60" height="60">
<path fill-rule="evenodd" clip-rule="evenodd" d="M24.0951 36C32.9122 36 40.06 28.8366 40.06 20C40.06 11.1634 32.9122 4 24.0951 4C15.2779 4 8.13013 11.1634 8.13013 20C8.13013 28.8366 15.2779 36 24.0951 36Z" fill="white"/>
</mask>
<g mask="url(#mask0)">
<g filter="url(#filter0_dd)">
<path fill-rule="evenodd" clip-rule="evenodd" d="M23.6092 36C32.4264 36 39.5742 28.8366 39.5742 20C39.5742 11.1634 32.4264 4 23.6092 4C14.792 4 7.64429 11.1634 7.64429 20C7.64429 28.8366 14.792 36 23.6092 36Z" fill="#6676F3"/>
</g>
<path opacity="0.86" d="M18.2807 18.988L17.2727 16.958H17.2307V24H15.4807V14.228H17.5107L20.4507 19.24L21.4587 21.27H21.5007V14.228H23.2507V24H21.2207L18.2807 18.988ZM28.6932 19.576L27.3912 21.116V24H25.5432V14.228H27.3912V19.044H27.4612L28.8472 17.21L31.2692 14.228H33.3972L29.9952 18.302L33.6772 24H31.4792L28.6932 19.576Z" fill="white"/>
</g>
<defs>
<filter id="filter0_dd" x="-0.355713" y="0" width="47.9299" height="48" filterUnits="userSpaceOnUse" color-interpolation-filters="sRGB">
<feFlood flood-opacity="0" result="BackgroundImageFix"/>
<feColorMatrix in="SourceAlpha" type="matrix" values="0 0 0 0 0 0 0 0 0 0 0 0 0 0 0 0 0 0 127 0" result="hardAlpha"/>
<feOffset dy="4"/>
<feGaussianBlur stdDeviation="4"/>
<feColorMatrix type="matrix" values="0 0 0 0 0.172549 0 0 0 0 0.152941 0 0 0 0 0.219608 0 0 0 0.08 0"/>
<feBlend mode="normal" in2="BackgroundImageFix" result="effect1_dropShadow"/>
<feColorMatrix in="SourceAlpha" type="matrix" values="0 0 0 0 0 0 0 0 0 0 0 0 0 0 0 0 0 0 127 0" result="hardAlpha"/>
<feOffset dy="2"/>
<feGaussianBlur stdDeviation="2"/>
<feColorMatrix type="matrix" values="0 0 0 0 0.172549 0 0 0 0 0.152941 0 0 0 0 0.219608 0 0 0 0.04 0"/>
<feBlend mode="normal" in2="effect1_dropShadow" result="effect2_dropShadow"/>
<feBlend mode="normal" in="SourceGraphic" in2="effect2_dropShadow" result="shape"/>
</filter>
</defs>
</svg>
