<svg width="37" height="37" viewBox="0 0 37 37" fill="none" xmlns="http://www.w3.org/2000/svg">
<mask id="mask0" style="mask-type:alpha" maskUnits="userSpaceOnUse" x="4" y="8" width="28" height="22">
<path d="M27.1592 26.4609V27.2109C27.1592 27.8077 26.9221 28.38 26.5002 28.8019C26.0782 29.2239 25.5059 29.4609 24.9092 29.4609H6.90918C6.31244 29.4609 5.74015 29.2239 5.31819 28.8019C4.89623 28.38 4.65918 27.8077 4.65918 27.2109V15.2109C4.65918 14.6142 4.89623 14.0419 5.31819 13.6199C5.74015 13.198 6.31244 12.9609 6.90918 12.9609H7.65918V15.2109H7.18968C7.11515 15.2113 7.04381 15.2412 6.99124 15.2941C6.93868 15.3469 6.90918 15.4184 6.90918 15.4929V26.9304C6.90898 26.9674 6.91609 27.004 6.9301 27.0382C6.94411 27.0724 6.96474 27.1035 6.9908 27.1298C7.01687 27.156 7.04786 27.1768 7.08199 27.1909C7.11612 27.2051 7.15272 27.2124 7.18968 27.2124H24.6272C24.7016 27.2124 24.7729 27.1829 24.8255 27.1303C24.8781 27.0777 24.9077 27.0063 24.9077 26.9319V26.4609H27.1592ZM29.1272 10.7109H11.6897C11.6151 10.7113 11.5438 10.7412 11.4912 10.7941C11.4387 10.8469 11.4092 10.9184 11.4092 10.9929V22.4304C11.409 22.4674 11.4161 22.504 11.4301 22.5382C11.4441 22.5724 11.4647 22.6035 11.4908 22.6298C11.5169 22.656 11.5479 22.6768 11.582 22.6909C11.6161 22.7051 11.6527 22.7124 11.6897 22.7124H29.1272C29.1641 22.7126 29.2008 22.7055 29.235 22.6915C29.2692 22.6775 29.3003 22.6569 29.3265 22.6308C29.3527 22.6047 29.3735 22.5738 29.3877 22.5396C29.4019 22.5055 29.4092 22.4689 29.4092 22.4319V10.9929C29.4092 10.9559 29.4019 10.9192 29.3877 10.885C29.3735 10.8508 29.3528 10.8197 29.3266 10.7935C29.3004 10.7673 29.2693 10.7466 29.2351 10.7324C29.2009 10.7182 29.1642 10.7109 29.1272 10.7109ZM29.4092 8.46094C30.0059 8.46094 30.5782 8.69799 31.0002 9.11995C31.4221 9.5419 31.6592 10.1142 31.6592 10.7109V22.7109C31.6592 23.3077 31.4221 23.88 31.0002 24.3019C30.5782 24.7239 30.0059 24.9609 29.4092 24.9609H11.4092C10.8124 24.9609 10.2401 24.7239 9.81819 24.3019C9.39623 23.88 9.15918 23.3077 9.15918 22.7109V10.7109C9.15918 10.1142 9.39623 9.5419 9.81819 9.11995C10.2401 8.69799 10.8124 8.46094 11.4092 8.46094H29.4092ZM17.0342 13.7109C17.0342 14.0818 16.9242 14.4443 16.7182 14.7526C16.5122 15.061 16.2193 15.3013 15.8767 15.4432C15.5341 15.5851 15.1571 15.6223 14.7934 15.5499C14.4297 15.4776 14.0956 15.299 13.8334 15.0368C13.5711 14.7745 13.3926 14.4404 13.3202 14.0767C13.2479 13.713 13.285 13.336 13.4269 12.9934C13.5688 12.6508 13.8091 12.358 14.1175 12.1519C14.4258 11.9459 14.7883 11.8359 15.1592 11.8359C15.6565 11.8359 16.1334 12.0335 16.485 12.3851C16.8366 12.7367 17.0342 13.2137 17.0342 13.7109ZM13.6592 18.2109L15.5117 16.3584C15.6171 16.2531 15.7601 16.1939 15.9092 16.1939C16.0582 16.1939 16.2012 16.2531 16.3067 16.3584L18.1592 18.2109L23.0117 13.3584C23.1171 13.2531 23.2601 13.1939 23.4092 13.1939C23.5582 13.1939 23.7012 13.2531 23.8067 13.3584L27.1592 16.7109V20.4609H13.6592V18.2109Z" fill="black"/>
</mask>
<g mask="url(#mask0)">
<rect x="0.15918" y="0.960938" width="36" height="36" fill="#6676F3"/>
</g>
</svg>
