<svg width="28" height="29" viewBox="0 0 28 29" fill="none" xmlns="http://www.w3.org/2000/svg">
<path fill-rule="evenodd" clip-rule="evenodd" d="M9.60678 11.787C9.97127 12.1514 10.5622 12.1514 10.9267 11.787L13.0668 9.64692V17.6617C13.0668 18.1764 13.4846 18.5937 14.0001 18.5937C14.5156 18.5937 14.9334 18.1764 14.9334 17.6617V9.64694L17.0734 11.787C17.4379 12.1514 18.0289 12.1514 18.3934 11.787C18.7579 11.4225 18.7579 10.8315 18.3934 10.467L14.66 6.73369C14.2956 6.3692 13.7046 6.3692 13.3401 6.73369L9.60678 10.467C9.24229 10.8315 9.24229 11.4225 9.60678 11.787ZM21.4667 21.3937V15.7937C21.4667 15.2782 21.8846 14.8603 22.4001 14.8603C22.9155 14.8603 23.3334 15.2782 23.3334 15.7937V22.327C23.3334 22.8424 22.9155 23.2603 22.4001 23.2603H5.60008C5.08462 23.2603 4.66675 22.8424 4.66675 22.327V15.7937C4.66675 15.2782 5.08462 14.8603 5.60008 14.8603C6.11555 14.8603 6.53341 15.2782 6.53341 15.7937V21.3937H21.4667Z" fill="black"/>
<mask id="mask0" style="mask-type:alpha" maskUnits="userSpaceOnUse" x="4" y="6" width="20" height="18">
<path fill-rule="evenodd" clip-rule="evenodd" d="M9.60678 11.787C9.97127 12.1514 10.5622 12.1514 10.9267 11.787L13.0668 9.64692V17.6617C13.0668 18.1764 13.4846 18.5937 14.0001 18.5937C14.5156 18.5937 14.9334 18.1764 14.9334 17.6617V9.64694L17.0734 11.787C17.4379 12.1514 18.0289 12.1514 18.3934 11.787C18.7579 11.4225 18.7579 10.8315 18.3934 10.467L14.66 6.73369C14.2956 6.3692 13.7046 6.3692 13.3401 6.73369L9.60678 10.467C9.24229 10.8315 9.24229 11.4225 9.60678 11.787ZM21.4667 21.3937V15.7937C21.4667 15.2782 21.8846 14.8603 22.4001 14.8603C22.9155 14.8603 23.3334 15.2782 23.3334 15.7937V22.327C23.3334 22.8424 22.9155 23.2603 22.4001 23.2603H5.60008C5.08462 23.2603 4.66675 22.8424 4.66675 22.327V15.7937C4.66675 15.2782 5.08462 14.8603 5.60008 14.8603C6.11555 14.8603 6.53341 15.2782 6.53341 15.7937V21.3937H21.4667Z" fill="white"/>
</mask>
<g mask="url(#mask0)">
<rect y="0.860352" width="28" height="28" fill="#667EEA"/>
</g>
</svg>
